<svg width="40" height="24" viewBox="0 0 40 24" fill="none" xmlns="http://www.w3.org/2000/svg">
<path d="M8.55905 9.43897L11.0591 0.960053H19.8924L8.55905 9.43897Z" fill="#9CA3AF"/>
<path d="M22.6667 0H40L14.0794 12.9187V14.2392L30.5289 24H24.4062L16.0545 18.4306L22.2054 24H18.3117L13.3458 19.2344L17.0984 24H15.3773L10.8064 18.6479L8.521 19.0335L7.95669 19.4928V19.9234L6.99738 21.0144V20.067H5.72769L4.85302 21.0144V20.067L5.72769 19.0335H6.91273L8.06955 17.8278L8.37976 17.3684L8.68997 16.9091L7.30774 15.9404H2.66667L3.54016 17.6361C2.17458 17.6361 -0.594846 16.8762 0.114224 14.245L4.75228 10.9264L7.33333 11.5199V11.5313L22.6667 0Z" fill="#9CA3AF"/>
</svg>
