<svg width="628" height="70" viewBox="0 0 628 70" fill="none" xmlns="http://www.w3.org/2000/svg">
<path d="M27.4295 10.0454L33.226 11.9834L41.5818 8.85889L31.5478 8.01466C31.4489 7.99207 31.3459 7.99564 31.2487 8.02502L27.5886 8.95963C27.4754 8.98662 27.3727 9.04754 27.2939 9.1345C27.2151 9.22145 27.1638 9.33045 27.1467 9.4474C27.1296 9.56434 27.1473 9.68385 27.1978 9.79047C27.2482 9.89709 27.3289 9.98591 27.4295 10.0454Z" fill="white"/>
<path d="M60.0436 11.503L53.5507 8.86324C53.0049 8.56794 52.403 8.39537 51.7859 8.35723C51.1688 8.31909 50.551 8.41628 49.9744 8.64221L24.8117 17.1977L19.8584 15.5337C19.5739 15.4413 19.268 15.4419 18.9841 15.5356C18.7001 15.6293 18.4523 15.8113 18.2758 16.0559C18.0992 16.3005 18.0028 16.5953 18.0001 16.8988C17.9974 17.2022 18.0885 17.4989 18.2607 17.747L22.052 23.0857C22.1141 23.1747 22.1976 23.246 22.2946 23.2928C22.3916 23.3396 22.4987 23.3604 22.6058 23.3531C24.1511 23.2073 30.1184 21.9004 37.2028 20.2403L34.8708 28.2483C34.8504 28.3625 34.861 28.4801 34.9016 28.5886C34.9421 28.6971 35.0111 28.7923 35.1009 28.864C35.1908 28.9356 35.2981 28.981 35.4115 28.9952C35.5248 29.0094 35.6398 28.9919 35.744 28.9446L39.1311 27.4139C39.3168 27.3291 39.4671 27.1805 39.5556 26.9942L46.2683 18.1022C51.3448 16.8884 56.2022 15.6959 59.6245 14.8495C59.9778 14.7681 60.2979 14.5784 60.5415 14.3059C60.785 14.0334 60.9401 13.6914 60.9859 13.3262C61.0316 12.9609 60.9657 12.5901 60.7972 12.264C60.6287 11.9379 60.3656 11.6723 60.0436 11.503Z" fill="white"/>
<path fill-rule="evenodd" clip-rule="evenodd" d="M10.6401 31.2157C11.0065 28.1602 15.6933 28.3644 15.6933 31.2157V31.86C19.0942 38.7491 25.4654 42.5573 32.4473 43.9798C36.0862 44.7261 39.8986 44.8218 43.5503 44.3816C47.1956 43.9415 50.6737 42.9592 53.6439 41.5367C58.2728 39.3232 61.6802 36.0573 62.5867 32.1406V31.2157C62.9531 28.1602 67.6399 28.3644 67.6399 31.2157V32.7466C69.0414 35.4895 70.9637 37.6839 73.1174 39.4508C74.9626 40.9626 76.9813 42.1809 79 43.1697V45.0706C78.2542 44.7197 77.502 44.3497 76.7627 43.9415V49.7462H79V52.6741H67.6399V62H62.5867V52.6678H15.6933V61.9936H10.6401V52.6678H0V49.7399H1.87085V43.7438C1.25366 44.0946 0.623617 44.4199 0 44.7325V42.8124C1.76799 41.8875 3.51668 40.7904 5.12394 39.4572C7.30339 37.6456 9.2321 35.4002 10.6401 32.5744V31.2157ZM42.901 46.1741V49.7399H41.1716V46.3081C39.86 46.3782 38.5421 46.3782 37.2177 46.3081V49.7399H35.4883V46.1677C34.3503 46.0529 33.2188 45.8807 32.1002 45.651C31.8945 45.6064 31.6887 45.5681 31.4894 45.5171V49.7335H29.76V45.0769C28.4035 44.6942 27.0855 44.2158 25.8062 43.6417V49.7335H24.0767V42.7997C22.6624 42.0406 21.3187 41.1476 20.0779 40.1206V49.7399H18.3485V38.5386C17.3777 37.5563 16.4841 36.4719 15.6868 35.2854V49.7462H62.5867V36.3826C61.8923 37.4415 61.0373 38.4302 60.0408 39.3487V49.7399H58.3114V40.7585C57.1284 41.6196 55.8105 42.3978 54.3961 43.074L54.3125 43.1123V49.7399H52.5831V43.8713C51.323 44.3753 49.9986 44.809 48.6292 45.1662V49.7462H46.8998V45.5745C45.8712 45.7914 44.8168 45.9636 43.756 46.0912C43.4731 46.1167 43.1903 46.1486 42.901 46.1741ZM71.9281 40.6947V49.7462H75.0333V42.9273C73.9982 42.283 72.9889 41.5622 72.0181 40.7648L71.9281 40.6947ZM70.1987 49.7462V39.1191C69.2793 38.1942 68.4178 37.1863 67.6399 36.07V49.7399H70.1987V49.7462ZM8.42847 38.6981V49.7462H10.6401V35.9552C9.96501 36.9503 9.21924 37.8561 8.42847 38.6981ZM6.69906 49.7462V40.363C6.54476 40.4969 6.38403 40.6373 6.22331 40.7648C5.3811 41.4665 4.50033 42.1108 3.60026 42.6976V49.7462H6.69906Z" fill="white"/>
<path d="M111.08 62H94.2L117.32 8.4H138.84L162.04 62H144.76L140.68 52.08H115.24L111.08 62ZM124.04 31.04L120.92 38.56H135.16L132.04 31.04L128.52 22H127.48L124.04 31.04ZM178.69 62H163.65V8.4H184.05L193.89 30.64L199.17 44.48H200.21L205.25 30.64L214.61 8.4H235.01V62H219.97V39.84L220.53 30.88H219.49L216.45 39.84L208.45 58.8H190.21L182.21 39.84L179.17 30.88H178.13L178.69 39.84V62ZM366.581 62H351.541V8.4H382.821C396.981 8.4 404.421 14.32 404.421 24.8C404.421 33.28 400.181 38.32 389.941 39.6V40.4C395.461 41.84 397.221 44.48 399.221 48.56L405.861 62H388.501L382.101 48.88C380.181 44.88 378.581 43.76 372.741 43.76H366.581V62ZM366.581 21.92V32.56H382.661C387.061 32.56 388.661 31.76 388.661 27.2C388.661 22.96 387.061 21.92 382.661 21.92H366.581ZM423.299 62H408.259V8.4H423.299V62ZM456.903 62.8C438.263 62.8 427.303 51.92 427.303 35.2C427.303 18.48 438.263 7.6 456.903 7.6C474.903 7.6 485.703 16.16 485.703 30.48V31.84H468.903V30.48C468.903 24.4 466.023 22 457.143 22C446.263 22 443.303 24.56 443.303 35.2C443.303 45.84 446.263 48.4 457.143 48.4C466.023 48.4 468.903 46 468.903 39.92V38.56H485.703V39.92C485.703 54.24 474.903 62.8 456.903 62.8ZM503.346 62H486.466L509.586 8.4H531.106L554.306 62H537.026L532.946 52.08H507.506L503.346 62ZM516.306 31.04L513.186 38.56H527.426L524.306 31.04L520.786 22H519.746L516.306 31.04ZM581.916 62.8C565.516 62.8 555.516 56.96 555.516 43.36V42.88H570.556V44.56C570.556 48.16 571.836 49.12 581.916 49.12C591.036 49.12 591.996 48.4 591.996 46C591.996 44.08 590.956 43.28 586.556 42.72L569.756 40.48C559.756 39.12 554.716 33.76 554.716 25.12C554.716 16.56 561.356 7.6 580.716 7.6C597.756 7.6 605.916 15.04 605.916 27.04V27.52H590.876V26.32C590.876 22.48 589.196 21.2 579.116 21.2C571.436 21.2 569.756 22.24 569.756 24.56C569.756 26.24 570.716 27.04 573.596 27.44L590.396 29.92C603.516 31.84 607.036 38.56 607.036 45.44C607.036 54.64 599.996 62.8 581.916 62.8Z" fill="white"/>
<rect width="100" height="53" transform="translate(244 8)" fill="white"/>
<rect width="33" height="33" transform="translate(244 7.84619)" fill="#4348D8"/>
<path d="M260.5 18.8462L261.735 22.6466H265.731L262.498 24.9954L263.733 28.7958L260.5 26.447L257.267 28.7958L258.502 24.9954L255.269 22.6466H259.265L260.5 18.8462Z" fill="white"/>
<path d="M252.5 10.8462L253.735 14.6466H257.731L254.498 16.9954L255.733 20.7958L252.5 18.447L249.267 20.7958L250.502 16.9954L247.269 14.6466H251.265L252.5 10.8462Z" fill="white"/>
<path d="M268.5 10.8462L269.735 14.6466H273.731L270.498 16.9954L271.733 20.7958L268.5 18.447L265.267 20.7958L266.502 16.9954L263.269 14.6466H267.265L268.5 10.8462Z" fill="white"/>
<path d="M268.5 26.8462L269.735 30.6466H273.731L270.498 32.9954L271.733 36.7958L268.5 34.447L265.267 36.7958L266.502 32.9954L263.269 30.6466H267.265L268.5 26.8462Z" fill="white"/>
<path d="M252.5 26.8462L253.735 30.6466H257.731L254.498 32.9954L255.733 36.7958L252.5 34.447L249.267 36.7958L250.502 32.9954L247.269 30.6466H251.265L252.5 26.8462Z" fill="white"/>
<rect x="277" y="7.84619" width="67" height="12" fill="#AE0D26"/>
<rect x="277" y="28.1538" width="67" height="12" fill="#AE0D26"/>
<rect x="244" y="49.1538" width="100" height="12" fill="#AE0D26"/>
</svg>
