<svg width="1216" height="121" viewBox="0 0 1216 121" fill="none" xmlns="http://www.w3.org/2000/svg">
<mask id="mask0_89_1570" style="mask-type:alpha" maskUnits="userSpaceOnUse" x="0" y="0" width="1216" height="121">
<rect y="0.5" width="1216" height="120" fill="url(#paint0_linear_89_1570)"/>
</mask>
<g mask="url(#mask0_89_1570)">
<path d="M54.8818 11.6198L66.4683 15.4935L83.1702 9.24805L63.1138 7.56056C62.916 7.5154 62.7101 7.52253 62.5159 7.58127L55.1999 9.4494C54.9735 9.50336 54.7683 9.62512 54.6108 9.79894C54.4533 9.97276 54.3508 10.1906 54.3166 10.4244C54.2823 10.6581 54.3179 10.897 54.4186 11.1101C54.5194 11.3233 54.6808 11.5008 54.8818 11.6198Z" fill="#011E5A"/>
<path d="M120.073 14.5333L107.094 9.25675C106.003 8.66649 104.8 8.32154 103.567 8.2453C102.333 8.16907 101.098 8.36334 99.9457 8.81493L49.6492 25.9161L39.7483 22.5901C39.1796 22.4053 38.5683 22.4066 38.0007 22.5939C37.4331 22.7812 36.9378 23.1449 36.5849 23.6338C36.232 24.1227 36.0392 24.7121 36.0338 25.3186C36.0284 25.9251 36.2106 26.5182 36.5547 27.0142L44.133 37.6853C44.2572 37.8632 44.4241 38.0057 44.6179 38.0993C44.8117 38.1929 45.0259 38.2345 45.2399 38.2199C48.3288 37.9284 60.2566 35.316 74.4173 31.9978L69.7559 48.0047C69.7151 48.2328 69.7364 48.468 69.8174 48.6849C69.8985 48.9017 70.0363 49.092 70.2159 49.2352C70.3955 49.3785 70.6101 49.4692 70.8366 49.4976C71.0632 49.526 71.293 49.491 71.5013 49.3965L78.2715 46.3369C78.6427 46.1674 78.9432 45.8703 79.1202 45.498L92.5379 27.724C102.685 25.2978 112.394 22.9142 119.235 21.2223C119.941 21.0597 120.581 20.6804 121.068 20.1358C121.555 19.5912 121.865 18.9075 121.956 18.1775C122.048 17.4474 121.916 16.7063 121.579 16.0544C121.242 15.4026 120.716 14.8716 120.073 14.5333Z" fill="#011E5A"/>
<path fill-rule="evenodd" clip-rule="evenodd" d="M21.3226 53.9367C22.0551 47.8293 31.4233 48.2373 31.4233 53.9367V55.2245C38.2213 68.9949 50.9563 76.6069 64.9122 79.4502C72.1857 80.942 79.8061 81.1332 87.1053 80.2535C94.3917 79.3737 101.344 77.4101 107.281 74.5668C116.533 70.1424 123.344 63.6142 125.156 55.7855V53.9367C125.889 47.8293 135.257 48.2373 135.257 53.9367V56.9968C138.058 62.4794 141.901 66.8656 146.206 70.3974C149.894 73.4193 153.929 75.8546 157.964 77.8309V81.6305C156.473 80.9292 154.97 80.1897 153.492 79.3737V90.9765H157.964V96.8289H135.257V115.47H125.156V96.8162H31.4233V115.457H21.3226V96.8162H0.0546875V90.9638H3.79424V78.9784C2.56057 79.6797 1.30121 80.33 0.0546875 80.9547V77.1169C3.58863 75.2681 7.08402 73.075 10.2967 70.4102C14.6531 66.7891 18.5083 62.3009 21.3226 56.6525V53.9367ZM85.8074 83.8363V90.9638H82.3506V84.1041C79.729 84.2443 77.0947 84.2443 74.4474 84.1041V90.9638H70.9906V83.8236C68.716 83.5941 66.4543 83.2498 64.2182 82.7908C63.807 82.7015 63.3958 82.625 62.9974 82.523V90.951H59.5406V81.6433C56.8291 80.8782 54.1947 79.922 51.6374 78.7744V90.951H48.1806V77.0914C45.3534 75.5741 42.6676 73.789 40.1874 71.7362V90.9638H36.7306V68.5741C34.7901 66.6106 33.0039 64.443 31.4104 62.0714V90.9765H125.156V64.2645C123.768 66.3811 122.059 68.3574 120.067 70.1934V90.9638H116.611V73.0113C114.246 74.7326 111.612 76.2881 108.784 77.6396L108.617 77.7161V90.9638H105.161V79.2334C102.642 80.2407 99.9946 81.1077 97.2574 81.8218V90.9765H93.8006V82.6378C91.7444 83.0713 89.6369 83.4156 87.5166 83.6706C86.9511 83.7216 86.3857 83.7853 85.8074 83.8363ZM143.828 72.8837V90.9765H150.035V77.3464C147.966 76.0586 145.949 74.6178 144.008 73.024L143.828 72.8837ZM140.372 90.9765V69.7344C138.534 67.8856 136.812 65.871 135.257 63.6397V90.9638H140.372V90.9765ZM16.902 68.8929V90.9765H21.3226V63.4102C19.9733 65.3993 18.4826 67.2098 16.902 68.8929ZM13.4451 90.9765V72.2207C13.1367 72.4885 12.8154 72.769 12.4942 73.024C10.8107 74.4265 9.05018 75.7143 7.25108 76.8874V90.9765H13.4451Z" fill="#011E5A"/>
<path d="M222.087 114.531H188.346L234.56 7.3927H277.575L323.948 114.531H289.408L281.253 94.7026H230.402L222.087 114.531ZM247.992 52.6467L241.756 67.6781H270.219L263.983 52.6467L256.947 34.5771H254.868L247.992 52.6467ZM357.229 114.531H327.167V7.3927H367.943L387.612 51.8472L398.166 79.5113H400.245L410.319 51.8472L429.028 7.3927H469.805V114.531H439.742V70.2367L440.861 52.3269H438.783L432.706 70.2367L416.715 108.135H380.256L364.265 70.2367L358.189 52.3269H356.11L357.229 70.2367V114.531ZM732.795 114.531H702.732V7.3927H765.257C793.56 7.3927 808.432 19.2259 808.432 40.1739C808.432 57.1242 799.957 67.1984 779.488 69.7569V71.356C790.522 74.2344 794.04 79.5113 798.038 87.6667L811.31 114.531H776.61L763.817 88.3063C759.98 80.3109 756.781 78.0722 745.108 78.0722H732.795V114.531ZM732.795 34.4172V55.685H764.937C773.732 55.685 776.93 54.0859 776.93 44.9711C776.93 36.496 773.732 34.4172 764.937 34.4172H732.795ZM846.168 114.531H816.105V7.3927H846.168V114.531ZM913.337 116.13C876.078 116.13 854.171 94.3828 854.171 60.962C854.171 27.5411 876.078 5.79362 913.337 5.79362C949.316 5.79362 970.904 22.9038 970.904 51.5274V54.2458H937.323V51.5274C937.323 39.3744 931.566 34.5771 913.816 34.5771C892.069 34.5771 886.152 39.6942 886.152 60.962C886.152 82.2298 892.069 87.3468 913.816 87.3468C931.566 87.3468 937.323 82.5496 937.323 70.3966V67.6781H970.904V70.3966C970.904 99.0201 949.316 116.13 913.337 116.13ZM1006.17 114.531H972.428L1018.64 7.3927H1061.66L1108.03 114.531H1073.49L1065.33 94.7026H1014.48L1006.17 114.531ZM1032.07 52.6467L1025.84 67.6781H1054.3L1048.06 52.6467L1041.03 34.5771H1038.95L1032.07 52.6467ZM1163.22 116.13C1130.44 116.13 1110.45 104.457 1110.45 77.2726V76.3132H1140.51V79.6712C1140.51 86.8671 1143.07 88.786 1163.22 88.786C1181.45 88.786 1183.37 87.3468 1183.37 82.5496C1183.37 78.7118 1181.29 77.1127 1172.49 75.9934L1138.91 71.5159C1118.92 68.7975 1108.85 58.0836 1108.85 40.8135C1108.85 23.7033 1122.12 5.79362 1160.82 5.79362C1194.88 5.79362 1211.19 20.6651 1211.19 44.6513V45.6108H1181.13V43.2122C1181.13 35.5366 1177.77 32.978 1157.62 32.978C1142.27 32.978 1138.91 35.0568 1138.91 39.6942C1138.91 43.0522 1140.83 44.6513 1146.59 45.4509L1180.17 50.408C1206.39 54.2458 1213.43 67.6781 1213.43 81.4302C1213.43 99.8197 1199.36 116.13 1163.22 116.13Z" fill="#011E5A"/>
<rect width="199.885" height="105.939" transform="translate(487.775 7.53125)" fill="white"/>
<rect width="65.9622" height="65.9622" transform="translate(487.775 7.22461)" fill="#4348D8"/>
<path d="M520.755 29.2129L523.224 36.8093L531.211 36.8093L524.749 41.5042L527.217 49.1007L520.755 44.4058L514.293 49.1007L516.762 41.5042L510.3 36.8093L518.287 36.8093L520.755 29.2129Z" fill="white"/>
<path d="M504.765 13.2227L507.233 20.8191L515.221 20.8191L508.759 25.514L511.227 33.1104L504.765 28.4156L498.303 33.1104L500.771 25.514L494.31 20.8191L502.297 20.8191L504.765 13.2227Z" fill="white"/>
<path d="M536.748 13.2227L539.216 20.8191L547.203 20.8191L540.741 25.514L543.21 33.1104L536.748 28.4156L530.286 33.1104L532.754 25.514L526.292 20.8191L534.279 20.8191L536.748 13.2227Z" fill="white"/>
<path d="M536.748 45.2031L539.216 52.7996L547.203 52.7996L540.741 57.4944L543.21 65.0909L536.748 60.396L530.286 65.0909L532.754 57.4944L526.292 52.7996L534.279 52.7996L536.748 45.2031Z" fill="white"/>
<path d="M504.765 45.2031L507.233 52.7996L515.221 52.7996L508.759 57.4944L511.227 65.0909L504.765 60.396L498.303 65.0909L500.771 57.4944L494.31 52.7996L502.297 52.7996L504.765 45.2031Z" fill="white"/>
<rect x="553.738" y="7.22461" width="133.923" height="23.9862" fill="#AE0D26"/>
<rect x="553.738" y="47.8164" width="133.923" height="23.9862" fill="#AE0D26"/>
<rect x="487.775" y="89.791" width="199.885" height="23.9862" fill="#AE0D26"/>
</g>
<defs>
<linearGradient id="paint0_linear_89_1570" x1="664" y1="20.0259" x2="664.679" y2="140.025" gradientUnits="userSpaceOnUse">
<stop offset="0.297955" stop-color="white"/>
<stop offset="1" stop-color="white" stop-opacity="0"/>
</linearGradient>
</defs>
</svg>
