<svg width="520" height="103" viewBox="0 0 520 103" fill="none" xmlns="http://www.w3.org/2000/svg">
<path d="M6.28 35C5.928 35 5.656 34.904 5.464 34.712C5.272 34.488 5.176 34.216 5.176 33.896V2.552C5.176 2.2 5.272 1.928 5.464 1.736C5.656 1.512 5.928 1.4 6.28 1.4H18.472C20.84 1.4 22.888 1.784 24.616 2.552C26.376 3.32 27.736 4.472 28.696 6.008C29.656 7.512 30.136 9.4 30.136 11.672C30.136 13.944 29.656 15.832 28.696 17.336C27.736 18.84 26.376 19.976 24.616 20.744C22.888 21.512 20.84 21.896 18.472 21.896H9.976V33.896C9.976 34.216 9.864 34.488 9.64 34.712C9.448 34.904 9.176 35 8.824 35H6.28ZM9.928 17.864H18.232C20.6 17.864 22.376 17.336 23.56 16.28C24.744 15.224 25.336 13.688 25.336 11.672C25.336 9.688 24.76 8.152 23.608 7.064C22.456 5.976 20.664 5.432 18.232 5.432H9.928V17.864ZM48.0209 35.48C45.3009 35.48 42.9649 35.016 41.0129 34.088C39.0609 33.128 37.5569 31.672 36.5009 29.72C35.4449 27.736 34.8529 25.256 34.7249 22.28C34.6929 20.872 34.6769 19.528 34.6769 18.248C34.6769 16.936 34.6929 15.576 34.7249 14.168C34.8529 11.224 35.4609 8.776 36.5489 6.824C37.6689 4.84 39.2049 3.368 41.1569 2.408C43.1409 1.416 45.4289 0.919998 48.0209 0.919998C50.6449 0.919998 52.9329 1.416 54.8849 2.408C56.8689 3.368 58.4209 4.84 59.5409 6.824C60.6609 8.776 61.2689 11.224 61.3649 14.168C61.4289 15.576 61.4609 16.936 61.4609 18.248C61.4609 19.528 61.4289 20.872 61.3649 22.28C61.2689 25.256 60.6769 27.736 59.5889 29.72C58.5329 31.672 57.0289 33.128 55.0769 34.088C53.1249 35.016 50.7729 35.48 48.0209 35.48ZM48.0209 31.4C50.4849 31.4 52.4849 30.664 54.0209 29.192C55.5889 27.72 56.4369 25.336 56.5649 22.04C56.6289 20.6 56.6609 19.32 56.6609 18.2C56.6609 17.048 56.6289 15.768 56.5649 14.36C56.5009 12.152 56.0849 10.36 55.3169 8.984C54.5809 7.608 53.5889 6.6 52.3409 5.96C51.0929 5.32 49.6529 5 48.0209 5C46.4529 5 45.0449 5.32 43.7969 5.96C42.5489 6.6 41.5409 7.608 40.7729 8.984C40.0369 10.36 39.6209 12.152 39.5249 14.36C39.4929 15.768 39.4769 17.048 39.4769 18.2C39.4769 19.32 39.4929 20.6 39.5249 22.04C39.6529 25.336 40.5009 27.72 42.0689 29.192C43.6369 30.664 45.6209 31.4 48.0209 31.4ZM69.5613 35C69.2093 35 68.9373 34.904 68.7453 34.712C68.5533 34.488 68.4573 34.216 68.4573 33.896V2.552C68.4573 2.2 68.5533 1.928 68.7453 1.736C68.9373 1.512 69.2093 1.4 69.5613 1.4H71.7693C72.1533 1.4 72.4413 1.496 72.6333 1.688C72.8253 1.848 72.9373 1.976 72.9693 2.072L88.9053 26.552V2.552C88.9053 2.2 89.0013 1.928 89.1933 1.736C89.3853 1.512 89.6573 1.4 90.0093 1.4H92.3133C92.6653 1.4 92.9373 1.512 93.1293 1.736C93.3533 1.928 93.4653 2.2 93.4653 2.552V33.848C93.4653 34.168 93.3533 34.44 93.1293 34.664C92.9373 34.888 92.6813 35 92.3613 35H90.0573C89.7053 35 89.4333 34.904 89.2413 34.712C89.0813 34.52 88.9693 34.392 88.9053 34.328L73.0173 10.088V33.896C73.0173 34.216 72.9053 34.488 72.6813 34.712C72.4893 34.904 72.2173 35 71.8653 35H69.5613ZM110.233 35C109.913 35 109.641 34.904 109.417 34.712C109.225 34.488 109.129 34.216 109.129 33.896V5.672H99.9134C99.5934 5.672 99.3214 5.576 99.0974 5.384C98.9054 5.16 98.8094 4.888 98.8094 4.568V2.552C98.8094 2.2 98.9054 1.928 99.0974 1.736C99.3214 1.512 99.5934 1.4 99.9134 1.4H123.049C123.401 1.4 123.673 1.512 123.865 1.736C124.089 1.928 124.201 2.2 124.201 2.552V4.568C124.201 4.888 124.089 5.16 123.865 5.384C123.673 5.576 123.401 5.672 123.049 5.672H113.881V33.896C113.881 34.216 113.769 34.488 113.545 34.712C113.353 34.904 113.081 35 112.729 35H110.233ZM130.686 35C130.334 35 130.062 34.904 129.87 34.712C129.678 34.488 129.582 34.216 129.582 33.896V2.552C129.582 2.2 129.678 1.928 129.87 1.736C130.062 1.512 130.334 1.4 130.686 1.4H150.51C150.862 1.4 151.134 1.512 151.326 1.736C151.518 1.928 151.614 2.2 151.614 2.552V4.376C151.614 4.728 151.518 5 151.326 5.192C151.134 5.384 150.862 5.48 150.51 5.48H134.19V15.992H149.454C149.806 15.992 150.078 16.104 150.27 16.328C150.462 16.52 150.558 16.792 150.558 17.144V18.92C150.558 19.24 150.462 19.512 150.27 19.736C150.078 19.928 149.806 20.024 149.454 20.024H134.19V30.92H150.894C151.246 30.92 151.518 31.016 151.71 31.208C151.902 31.4 151.998 31.672 151.998 32.024V33.896C151.998 34.216 151.902 34.488 151.71 34.712C151.518 34.904 151.246 35 150.894 35H130.686Z" fill="#011E5A"/>
<path d="M178.35 4.31167L187.787 7.44931L201.389 2.39059L185.055 1.02374C184.893 0.987158 184.726 0.992934 184.568 1.04052L178.609 2.55368C178.425 2.59739 178.258 2.69601 178.13 2.8368C178.001 2.97759 177.918 3.15407 177.89 3.34341C177.862 3.53275 177.891 3.72624 177.973 3.89886C178.055 4.07148 178.187 4.21528 178.35 4.31167Z" fill="#011E5A"/>
<path d="M231.443 6.67159L220.873 2.39763C219.985 1.91953 219.005 1.64012 218 1.57837C216.996 1.51663 215.99 1.67398 215.051 2.03977L174.089 15.8915L166.025 13.1975C165.562 13.0478 165.064 13.0489 164.602 13.2006C164.14 13.3523 163.736 13.6469 163.449 14.0429C163.162 14.4389 163.005 14.9163 163 15.4075C162.996 15.8988 163.144 16.3792 163.424 16.7809L169.596 25.4244C169.697 25.5685 169.833 25.684 169.991 25.7598C170.149 25.8356 170.323 25.8692 170.498 25.8574C173.013 25.6213 182.728 23.5054 194.26 20.8176L190.464 33.783C190.431 33.9678 190.448 34.1583 190.514 34.3339C190.58 34.5096 190.692 34.6637 190.839 34.7797C190.985 34.8957 191.16 34.9692 191.344 34.9922C191.529 35.0152 191.716 34.9869 191.886 34.9103L197.399 32.4321C197.702 32.2948 197.946 32.0542 198.091 31.7526L209.018 17.3559C217.282 15.3907 225.19 13.46 230.761 12.0896C231.336 11.9579 231.857 11.6507 232.254 11.2095C232.65 10.7684 232.903 10.2147 232.977 9.62332C233.051 9.03199 232.944 8.43167 232.67 7.90369C232.396 7.3757 231.967 6.94558 231.443 6.67159Z" fill="#011E5A"/>
<path d="M17.08 101H0.2L23.32 47.4H44.84L68.04 101H50.76L46.68 91.08H21.24L17.08 101ZM30.04 70.04L26.92 77.56H41.16L38.04 70.04L34.52 61H33.48L30.04 70.04ZM84.69 101H69.65V47.4H90.05L99.89 69.64L105.17 83.48H106.21L111.25 69.64L120.61 47.4H141.01V101H125.97V78.84L126.53 69.88H125.49L122.45 78.84L114.45 97.8H96.21L88.21 78.84L85.17 69.88H84.13L84.69 78.84V101ZM272.581 101H257.541V47.4H288.821C302.981 47.4 310.421 53.32 310.421 63.8C310.421 72.28 306.181 77.32 295.941 78.6V79.4C301.461 80.84 303.221 83.48 305.221 87.56L311.861 101H294.501L288.101 87.88C286.181 83.88 284.581 82.76 278.741 82.76H272.581V101ZM272.581 60.92V71.56H288.661C293.061 71.56 294.661 70.76 294.661 66.2C294.661 61.96 293.061 60.92 288.661 60.92H272.581ZM329.299 101H314.259V47.4H329.299V101ZM362.903 101.8C344.263 101.8 333.303 90.92 333.303 74.2C333.303 57.48 344.263 46.6 362.903 46.6C380.903 46.6 391.703 55.16 391.703 69.48V70.84H374.903V69.48C374.903 63.4 372.023 61 363.143 61C352.263 61 349.303 63.56 349.303 74.2C349.303 84.84 352.263 87.4 363.143 87.4C372.023 87.4 374.903 85 374.903 78.92V77.56H391.703V78.92C391.703 93.24 380.903 101.8 362.903 101.8ZM409.346 101H392.466L415.586 47.4H437.106L460.306 101H443.026L438.946 91.08H413.506L409.346 101ZM422.306 70.04L419.186 77.56H433.426L430.306 70.04L426.786 61H425.746L422.306 70.04ZM487.916 101.8C471.516 101.8 461.516 95.96 461.516 82.36V81.88H476.556V83.56C476.556 87.16 477.836 88.12 487.916 88.12C497.036 88.12 497.996 87.4 497.996 85C497.996 83.08 496.956 82.28 492.556 81.72L475.756 79.48C465.756 78.12 460.716 72.76 460.716 64.12C460.716 55.56 467.356 46.6 486.716 46.6C503.756 46.6 511.916 54.04 511.916 66.04V66.52H496.876V65.32C496.876 61.48 495.196 60.2 485.116 60.2C477.436 60.2 475.756 61.24 475.756 63.56C475.756 65.24 476.716 66.04 479.596 66.44L496.396 68.92C509.516 70.84 513.036 77.56 513.036 84.44C513.036 93.64 505.996 101.8 487.916 101.8Z" fill="#011E5A"/>
<rect width="100" height="53.3077" transform="translate(149 47)" fill="white"/>
<rect width="33" height="33" transform="translate(149 47)" fill="#4348D8"/>
<path d="M165.5 58L166.735 61.8004H170.731L167.498 64.1492L168.733 67.9496L165.5 65.6008L162.267 67.9496L163.502 64.1492L160.269 61.8004H164.265L165.5 58Z" fill="white"/>
<path d="M157.5 50L158.735 53.8004H162.731L159.498 56.1492L160.733 59.9496L157.5 57.6008L154.267 59.9496L155.502 56.1492L152.269 53.8004H156.265L157.5 50Z" fill="white"/>
<path d="M173.5 50L174.735 53.8004H178.731L175.498 56.1492L176.733 59.9496L173.5 57.6008L170.267 59.9496L171.502 56.1492L168.269 53.8004H172.265L173.5 50Z" fill="white"/>
<path d="M173.5 66L174.735 69.8004H178.731L175.498 72.1492L176.733 75.9496L173.5 73.6008L170.267 75.9496L171.502 72.1492L168.269 69.8004H172.265L173.5 66Z" fill="white"/>
<path d="M157.5 66L158.735 69.8004H162.731L159.498 72.1492L160.733 75.9496L157.5 73.6008L154.267 75.9496L155.502 72.1492L152.269 69.8004H156.265L157.5 66Z" fill="white"/>
<rect x="182" y="47" width="67" height="12" fill="#AE0D26"/>
<rect x="182" y="67.3076" width="67" height="12" fill="#AE0D26"/>
<rect x="149" y="88.3076" width="100" height="12" fill="#AE0D26"/>
</svg>
