<svg width="199" height="40" viewBox="0 0 199 40" fill="none" xmlns="http://www.w3.org/2000/svg">
<path d="M2.32546 13.0303C2.19088 13.0303 2.08688 12.9936 2.01346 12.9202C1.94005 12.8345 1.90335 12.7305 1.90335 12.6082V0.623683C1.90335 0.489095 1.94005 0.385095 2.01346 0.311683C2.08688 0.226036 2.19088 0.183212 2.32546 0.183212H6.98711C7.89252 0.183212 8.67558 0.330036 9.33629 0.623683C10.0092 0.91733 10.5292 1.3578 10.8963 1.9451C11.2633 2.52015 11.4469 3.24204 11.4469 4.11074C11.4469 4.97945 11.2633 5.70133 10.8963 6.27639C10.5292 6.85145 10.0092 7.2858 9.33629 7.57945C8.67558 7.8731 7.89252 8.01992 6.98711 8.01992H3.73864V12.6082C3.73864 12.7305 3.69582 12.8345 3.61017 12.9202C3.53676 12.9936 3.43276 13.0303 3.29817 13.0303H2.32546ZM3.72029 6.47827H6.89535C7.80076 6.47827 8.47982 6.27639 8.93252 5.87263C9.38523 5.46886 9.61158 4.88157 9.61158 4.11074C9.61158 3.35215 9.39135 2.76486 8.95088 2.34886C8.51041 1.93286 7.82523 1.72486 6.89535 1.72486H3.72029V6.47827ZM18.2852 13.2138C17.2452 13.2138 16.352 13.0364 15.6057 12.6816C14.8593 12.3145 14.2843 11.7578 13.8805 11.0114C13.4767 10.2529 13.2504 9.30463 13.2014 8.16674C13.1892 7.62839 13.1831 7.11451 13.1831 6.6251C13.1831 6.12345 13.1892 5.60345 13.2014 5.0651C13.2504 3.93945 13.4829 3.00345 13.8989 2.2571C14.3271 1.49851 14.9144 0.935683 15.6607 0.568624C16.4193 0.18933 17.2942 -0.000317091 18.2852 -0.000317091C19.2885 -0.000317091 20.1633 0.18933 20.9097 0.568624C21.6683 0.935683 22.2617 1.49851 22.6899 2.2571C23.1182 3.00345 23.3506 3.93945 23.3873 5.0651C23.4118 5.60345 23.424 6.12345 23.424 6.6251C23.424 7.11451 23.4118 7.62839 23.3873 8.16674C23.3506 9.30463 23.1243 10.2529 22.7083 11.0114C22.3045 11.7578 21.7294 12.3145 20.9831 12.6816C20.2367 13.0364 19.3374 13.2138 18.2852 13.2138ZM18.2852 11.6538C19.2273 11.6538 19.992 11.3724 20.5793 10.8096C21.1789 10.2467 21.5031 9.33521 21.552 8.07498C21.5765 7.52439 21.5887 7.03498 21.5887 6.60674C21.5887 6.16627 21.5765 5.67686 21.552 5.13851C21.5276 4.29427 21.3685 3.6091 21.0749 3.08298C20.7934 2.55686 20.4142 2.17145 19.937 1.92674C19.4598 1.68204 18.9092 1.55968 18.2852 1.55968C17.6857 1.55968 17.1473 1.68204 16.6702 1.92674C16.193 2.17145 15.8076 2.55686 15.5139 3.08298C15.2325 3.6091 15.0734 4.29427 15.0367 5.13851C15.0245 5.67686 15.0184 6.16627 15.0184 6.60674C15.0184 7.03498 15.0245 7.52439 15.0367 8.07498C15.0857 9.33521 15.4099 10.2467 16.0094 10.8096C16.609 11.3724 17.3676 11.6538 18.2852 11.6538ZM26.5212 13.0303C26.3867 13.0303 26.2827 12.9936 26.2092 12.9202C26.1358 12.8345 26.0991 12.7305 26.0991 12.6082V0.623683C26.0991 0.489095 26.1358 0.385095 26.2092 0.311683C26.2827 0.226036 26.3867 0.183212 26.5212 0.183212H27.3655C27.5123 0.183212 27.6224 0.219918 27.6958 0.293331C27.7692 0.354507 27.8121 0.403448 27.8243 0.440153L33.9175 9.80016V0.623683C33.9175 0.489095 33.9542 0.385095 34.0276 0.311683C34.101 0.226036 34.205 0.183212 34.3396 0.183212H35.2205C35.3551 0.183212 35.4591 0.226036 35.5325 0.311683C35.6182 0.385095 35.661 0.489095 35.661 0.623683V12.5898C35.661 12.7122 35.6182 12.8162 35.5325 12.9018C35.4591 12.9874 35.3612 13.0303 35.2389 13.0303H34.3579C34.2234 13.0303 34.1194 12.9936 34.0459 12.9202C33.9848 12.8467 33.9419 12.7978 33.9175 12.7733L27.8427 3.50509V12.6082C27.8427 12.7305 27.7998 12.8345 27.7142 12.9202C27.6408 12.9936 27.5368 13.0303 27.4022 13.0303H26.5212ZM42.0723 13.0303C41.95 13.0303 41.846 12.9936 41.7603 12.9202C41.6869 12.8345 41.6502 12.7305 41.6502 12.6082V1.81662H38.1265C38.0041 1.81662 37.9001 1.77992 37.8145 1.70651C37.7411 1.62086 37.7043 1.51686 37.7043 1.39451V0.623683C37.7043 0.489095 37.7411 0.385095 37.8145 0.311683C37.9001 0.226036 38.0041 0.183212 38.1265 0.183212H46.9726C47.1072 0.183212 47.2112 0.226036 47.2846 0.311683C47.3702 0.385095 47.4131 0.489095 47.4131 0.623683V1.39451C47.4131 1.51686 47.3702 1.62086 47.2846 1.70651C47.2112 1.77992 47.1072 1.81662 46.9726 1.81662H43.4672V12.6082C43.4672 12.7305 43.4243 12.8345 43.3387 12.9202C43.2653 12.9936 43.1613 13.0303 43.0267 13.0303H42.0723ZM49.8926 13.0303C49.758 13.0303 49.654 12.9936 49.5806 12.9202C49.5072 12.8345 49.4704 12.7305 49.4704 12.6082V0.623683C49.4704 0.489095 49.5072 0.385095 49.5806 0.311683C49.654 0.226036 49.758 0.183212 49.8926 0.183212H57.4723C57.6069 0.183212 57.7109 0.226036 57.7843 0.311683C57.8577 0.385095 57.8944 0.489095 57.8944 0.623683V1.3211C57.8944 1.45568 57.8577 1.55968 57.7843 1.63309C57.7109 1.70651 57.6069 1.74321 57.4723 1.74321H51.2323V5.76251H57.0686C57.2032 5.76251 57.3072 5.80533 57.3806 5.89098C57.454 5.96439 57.4907 6.06839 57.4907 6.20298V6.88204C57.4907 7.00439 57.454 7.10839 57.3806 7.19404C57.3072 7.26745 57.2032 7.30415 57.0686 7.30415H51.2323V11.4703H57.6192C57.7537 11.4703 57.8577 11.507 57.9312 11.5804C58.0046 11.6538 58.0413 11.7578 58.0413 11.8924V12.6082C58.0413 12.7305 58.0046 12.8345 57.9312 12.9202C57.8577 12.9936 57.7537 13.0303 57.6192 13.0303H49.8926Z" fill="white"/>
<path d="M68.2354 1.2965L71.8434 2.49619L77.0443 0.561968L70.7988 0.0393503C70.7372 0.0253633 70.6731 0.0275716 70.6126 0.0457648L68.3345 0.624328C68.2639 0.641039 68.2 0.678749 68.151 0.73258C68.102 0.786412 68.07 0.853888 68.0594 0.926282C68.0487 0.998677 68.0598 1.07266 68.0912 1.13866C68.1225 1.20466 68.1728 1.25965 68.2354 1.2965Z" fill="white"/>
<path d="M88.5356 2.19882L84.4942 0.564662C84.1544 0.381858 83.7798 0.275026 83.3957 0.251417C83.0116 0.227807 82.627 0.287973 82.2681 0.427831L66.606 5.72407L63.5229 4.69401C63.3458 4.63678 63.1554 4.63719 62.9787 4.69519C62.8019 4.75319 62.6477 4.86586 62.5378 5.01727C62.4279 5.16868 62.3679 5.3512 62.3662 5.53904C62.3645 5.72689 62.4212 5.91057 62.5284 6.06416L64.8883 9.36903C64.9269 9.42411 64.9789 9.46826 65.0393 9.49725C65.0996 9.52624 65.1663 9.5391 65.2329 9.53459C66.1948 9.44431 69.9091 8.63526 74.3187 7.6076L72.8671 12.565C72.8544 12.6356 72.861 12.7084 72.8863 12.7756C72.9115 12.8428 72.9544 12.9017 73.0104 12.9461C73.0663 12.9904 73.1331 13.0185 73.2037 13.0273C73.2742 13.0361 73.3458 13.0253 73.4106 12.996L75.5189 12.0484C75.6344 11.9959 75.728 11.9039 75.7831 11.7886L79.9614 6.28399C83.1211 5.5326 86.1445 4.79439 88.2747 4.27041C88.4946 4.22007 88.6939 4.1026 88.8454 3.93392C88.997 3.76525 89.0936 3.55352 89.1221 3.32743C89.1505 3.10133 89.1095 2.87179 89.0046 2.66992C88.8997 2.46804 88.736 2.30358 88.5356 2.19882Z" fill="white"/>
<path d="M6.45488 37.6182H0.000758226L8.84076 17.124H17.069L25.9396 37.6182H19.3325L17.7725 33.8252H8.04547L6.45488 37.6182ZM11.4102 25.7805L10.2172 28.6558H15.6619L14.469 25.7805L13.1231 22.324H12.7255L11.4102 25.7805ZM32.3058 37.6182H26.5552V17.124H34.3552L38.1175 25.6276L40.1364 30.9193H40.534L42.4611 25.6276L46.0399 17.124H53.8399V37.6182H48.0893V29.1452L48.3034 25.7193H47.9058L46.7434 29.1452L43.6846 36.3946H36.7105L33.6516 29.1452L32.4893 25.7193H32.0916L32.3058 29.1452V37.6182ZM104.146 37.6182H98.3957V17.124H110.356C115.77 17.124 118.615 19.3876 118.615 23.3946C118.615 26.637 116.993 28.564 113.078 29.0535V29.3593C115.189 29.9099 115.862 30.9193 116.626 32.4793L119.165 37.6182H112.527L110.08 32.6017C109.346 31.0723 108.735 30.644 106.502 30.644H104.146V37.6182ZM104.146 22.2935V26.3617H110.295C111.977 26.3617 112.589 26.0558 112.589 24.3123C112.589 22.6911 111.977 22.2935 110.295 22.2935H104.146ZM125.833 37.6182H120.082V17.124H125.833V37.6182ZM138.681 37.924C131.554 37.924 127.364 33.764 127.364 27.3711C127.364 20.9782 131.554 16.8182 138.681 16.8182C145.564 16.8182 149.693 20.0911 149.693 25.5664V26.0864H143.27V25.5664C143.27 23.2417 142.168 22.324 138.773 22.324C134.613 22.324 133.481 23.3029 133.481 27.3711C133.481 31.4393 134.613 32.4182 138.773 32.4182C142.168 32.4182 143.27 31.5005 143.27 29.1758V28.6558H149.693V29.1758C149.693 34.6511 145.564 37.924 138.681 37.924ZM156.439 37.6182H149.985L158.825 17.124H167.053L175.924 37.6182H169.316L167.756 33.8252H158.029L156.439 37.6182ZM161.394 25.7805L160.201 28.6558H165.646L164.453 25.7805L163.107 22.324H162.709L161.394 25.7805ZM186.48 37.924C180.21 37.924 176.386 35.6911 176.386 30.4911V30.3076H182.137V30.9499C182.137 32.3264 182.626 32.6935 186.48 32.6935C189.967 32.6935 190.334 32.4182 190.334 31.5005C190.334 30.7664 189.937 30.4605 188.254 30.2464L181.831 29.3899C178.007 28.8699 176.08 26.8205 176.08 23.517C176.08 20.244 178.619 16.8182 186.021 16.8182C192.537 16.8182 195.657 19.6629 195.657 24.2511V24.4346H189.906V23.9758C189.906 22.5076 189.264 22.0182 185.41 22.0182C182.473 22.0182 181.831 22.4158 181.831 23.3029C181.831 23.9452 182.198 24.2511 183.299 24.404L189.723 25.3523C194.739 26.0864 196.085 28.6558 196.085 31.2864C196.085 34.804 193.393 37.924 186.48 37.924Z" fill="white"/>
<rect width="38.2353" height="20.3824" transform="translate(56.8945 17.6182)" fill="white"/>
<rect width="12.6176" height="12.6176" transform="translate(56.8945 17.6182)" fill="#4348D8"/>
<path d="M63.2045 21.8242L63.6766 23.2773H65.2045L63.9684 24.1754L64.4406 25.6285L63.2045 24.7304L61.9684 25.6285L62.4406 24.1754L61.2045 23.2773H62.7324L63.2045 21.8242Z" fill="white"/>
<path d="M60.144 18.7656L60.6161 20.2187H62.144L60.9079 21.1168L61.38 22.5699L60.144 21.6718L58.9079 22.5699L59.38 21.1168L58.1439 20.2187H59.6718L60.144 18.7656Z" fill="white"/>
<path d="M66.2631 18.7656L66.7352 20.2187H68.2631L67.027 21.1168L67.4992 22.5699L66.2631 21.6718L65.027 22.5699L65.4992 21.1168L64.2631 20.2187H65.791L66.2631 18.7656Z" fill="white"/>
<path d="M66.2631 24.8828L66.7352 26.3359H68.2631L67.027 27.234L67.4992 28.6871L66.2631 27.789L65.027 28.6871L65.4992 27.234L64.2631 26.3359H65.791L66.2631 24.8828Z" fill="white"/>
<path d="M60.144 24.8828L60.6161 26.3359H62.144L60.9079 27.234L61.38 28.6871L60.144 27.789L58.9079 28.6871L59.38 27.234L58.1439 26.3359H59.6718L60.144 24.8828Z" fill="white"/>
<rect x="69.5117" y="17.6182" width="25.6176" height="4.58824" fill="#AE0D26"/>
<rect x="69.5117" y="25.3828" width="25.6176" height="4.58824" fill="#AE0D26"/>
<rect x="56.8945" y="33.4121" width="38.2353" height="4.58824" fill="#AE0D26"/>
</svg>
