<svg width="320" height="320" viewBox="0 0 320 320" fill="none" xmlns="http://www.w3.org/2000/svg" xmlns:xlink="http://www.w3.org/1999/xlink">
<g clip-path="url(#clip0_514_3586)">
<rect width="320" height="320" rx="160" fill="#EEEEEE"/>
<path d="M106.048 48.8136C108.539 48.6633 111.032 49.0459 113.359 49.9357L113.381 49.9435L224.075 90.382L224.588 90.5695L225.107 90.3995L246.883 83.2599C247.822 82.9619 248.832 82.964 249.769 83.2657C250.706 83.5675 251.521 84.153 252.1 84.9366C252.68 85.72 252.996 86.6627 253.005 87.632C253.013 88.5955 252.719 89.5398 252.16 90.3322L235.481 113.254L235.473 113.265C235.357 113.427 235.2 113.558 235.016 113.645C234.836 113.73 234.637 113.768 234.437 113.757C231.131 113.448 222.984 111.916 211.674 109.543C200.378 107.174 186.035 103.991 170.457 100.428L168.129 99.8956L168.554 102.246L178.813 158.858L178.814 158.86C178.852 159.066 178.832 159.278 178.757 159.474C178.681 159.67 178.553 159.844 178.384 159.976C178.214 160.108 178.011 160.192 177.795 160.219C177.578 160.245 177.359 160.213 177.162 160.125L177.159 160.124L162.26 153.552H162.259C161.781 153.337 161.398 152.965 161.173 152.502L161.172 152.5L131.641 92.0929L131.312 91.42L130.584 91.2501L122.266 89.3029C103.014 84.783 85.0111 80.4667 71.8396 77.2872L71.8279 77.2843L71.8152 77.2814L71.5837 77.2247C70.4344 76.9201 69.3977 76.2939 68.5984 75.421C67.7459 74.49 67.2044 73.3228 67.0447 72.0782C66.885 70.8337 67.1144 69.5693 67.7039 68.4562C68.2934 67.3429 69.215 66.4336 70.3455 65.8536L70.3533 65.8497L70.3601 65.8458L98.9236 50.8068L98.9255 50.8058C101.128 49.6431 103.557 48.9638 106.048 48.8136ZM195.326 43.6027C195.5 43.5639 195.682 43.5699 195.852 43.6202L195.885 43.63L195.917 43.6378L212.018 47.6505L212.03 47.6534L212.043 47.6564C212.236 47.7014 212.409 47.8027 212.541 47.9445C212.672 48.0861 212.757 48.2622 212.785 48.4493C212.813 48.6365 212.784 48.8288 212.701 49.0011C212.617 49.1736 212.482 49.3195 212.311 49.4181L212.272 49.4415L187.423 64.7697L156.214 53.38L195.326 43.6027Z" fill="url(#pattern0_514_3586)" stroke="#011E5A" stroke-width="3.15271"/>
<path fill-rule="evenodd" clip-rule="evenodd" d="M31.4088 139.754C33.0417 126.033 53.9245 126.95 53.9245 139.754V142.647C69.0781 173.585 97.4661 190.686 128.576 197.074C144.789 200.426 161.776 200.856 178.047 198.879C194.289 196.903 209.786 192.491 223.021 186.103C243.646 176.163 258.828 161.496 262.867 143.908V139.754C264.5 126.033 285.383 126.95 285.383 139.754V146.629C291.628 158.947 300.193 168.801 309.789 176.736C318.01 183.525 327.005 188.996 336 193.436V201.973C332.677 200.397 329.325 198.736 326.031 196.903V222.97H336V236.119H285.383V277.999H262.867V236.09H53.9245V277.97H31.4088V236.09H-16V222.942H-7.66406V196.015C-10.4141 197.59 -13.2214 199.051 -16 200.455V191.832C-8.1224 187.679 -0.330731 182.752 6.83073 176.765C16.5417 168.629 25.1354 158.546 31.4088 145.856V139.754ZM175.154 206.929V222.942H167.448V207.53C161.604 207.845 155.732 207.845 149.831 207.53V222.942H142.125V206.9C137.055 206.384 132.013 205.611 127.029 204.58C126.112 204.379 125.195 204.207 124.307 203.978V222.913H116.602V202.002C110.557 200.283 104.685 198.134 98.9844 195.556V222.913H91.2786V191.775C84.9766 188.366 78.9896 184.356 73.4609 179.744V222.942H65.7552V172.64C61.4297 168.228 57.4479 163.358 53.8958 158.03V222.97H262.867V162.957C259.773 167.713 255.964 172.153 251.523 176.278V222.942H243.818V182.608C238.547 186.476 232.674 189.97 226.372 193.007L226 193.179V222.942H218.294V196.588C212.68 198.851 206.779 200.798 200.677 202.403V222.97H192.971V204.236C188.388 205.21 183.69 205.983 178.964 206.556C177.703 206.671 176.443 206.814 175.154 206.929ZM304.49 182.322V222.97H318.325V192.348C313.713 189.455 309.216 186.218 304.891 182.637L304.49 182.322ZM296.784 222.97V175.246C292.687 171.093 288.849 166.567 285.383 161.554V222.942H296.784V222.97ZM21.5547 173.356V222.97H31.4088V161.038C28.401 165.507 25.0781 169.574 21.5547 173.356ZM13.849 222.97V180.832C13.1615 181.434 12.4453 182.064 11.7292 182.637C7.97656 185.788 4.05208 188.681 0.0416641 191.317V222.97H13.849Z" fill="#011E5A"/>
</g>
<defs>
<clipPath id="clip0_514_3586">
<rect width="320" height="320" rx="160" fill="white"/>
</clipPath>
<pattern id="pattern0_514_3586" patternUnits="userSpaceOnUse" patternTransform="matrix(238.835 0 0 128.339 65.2797 41.967)" preserveAspectRatio="none" viewBox="0 0 476.054 255.808" width="1" height="1">
<g id="pattern0_514_3586_inner">
<rect width="476.054" height="255.808" fill="white"/>
<rect width="157.746" height="157.746" fill="#4348D8"/>
<path d="M39.4367 9.85916L46.0772 30.2966H67.5664L50.1813 42.9276L56.8218 63.365L39.4367 50.734L22.0516 63.365L28.6921 42.9276L11.307 30.2966H32.7962L39.4367 9.85916Z" fill="white"/>
<path d="M113.38 9.85919L120.021 30.2966H141.51L124.125 42.9276L130.765 63.365L113.38 50.734L95.9949 63.365L102.635 42.9276L85.2504 30.2966H106.74L113.38 9.85919Z" fill="white"/>
<path d="M113.38 83.8025L120.021 104.24H141.51L124.125 116.871L130.765 137.308L113.38 124.677L95.9949 137.308L102.635 116.871L85.2504 104.24H106.74L113.38 83.8025Z" fill="white"/>
<path d="M39.4367 83.8026L46.0772 104.24H67.5664L50.1813 116.871L56.8218 137.308L39.4367 124.677L22.0516 137.308L28.6921 116.871L11.307 104.24H32.7962L39.4367 83.8026Z" fill="white"/>
<rect x="157.745" width="318.308" height="59.1546" fill="#AE0D26"/>
<rect x="157.745" y="98.5909" width="318.308" height="59.1546" fill="#AE0D26"/>
<rect y="196.654" width="476.054" height="59.1546" fill="#AE0D26"/>
</g>
</pattern></defs>
</svg>
