<svg width="42" height="42" viewBox="0 0 42 42" fill="none" xmlns="http://www.w3.org/2000/svg">
<g clip-path="url(#clip0_459_2134)">
<path d="M41.9974 31.3834C41.9974 31.6133 41.9904 32.1121 41.9766 32.4973C41.9428 33.44 41.8681 34.6564 41.7551 35.2106C41.5852 36.0434 41.3288 36.8295 40.9945 37.4839C40.599 38.2579 40.0945 38.9512 39.4951 39.5496C38.8969 40.1468 38.2042 40.6493 37.4314 41.0432C36.7736 41.3784 35.9826 41.6349 35.145 41.804C34.5963 41.9148 33.389 41.9881 32.4524 42.0214C32.0668 42.0352 31.5679 42.0421 31.3388 42.0421L10.6577 42.0388C10.4277 42.0388 9.92903 42.0317 9.54377 42.0179C8.60111 41.9841 7.38475 41.9094 6.8305 41.7964C5.99764 41.6265 5.21149 41.3702 4.55721 41.0359C3.78317 40.6403 3.08988 40.1358 2.4915 39.5364C1.89431 38.9382 1.39179 38.2456 0.997918 37.4727C0.662656 36.8149 0.406144 36.0239 0.237037 35.1863C0.126295 34.6376 0.053 33.4304 0.0196543 32.4937C0.00595508 32.1081 -0.000976562 31.6093 -0.000976562 31.3802L0.00230469 10.699C0.00230469 10.469 0.00931836 9.97029 0.0231406 9.58503C0.0569785 8.64237 0.131668 7.42601 0.244666 6.8718C0.414512 6.03894 0.670859 5.2528 1.00518 4.59847C1.40069 3.82447 1.90522 3.13114 2.50467 2.53276C3.10284 1.93562 3.79551 1.43305 4.56837 1.03914C5.22614 0.703957 6.0172 0.447445 6.85478 0.278338C7.40345 0.167555 8.61075 0.0942598 9.54738 0.0609551C9.93301 0.0472148 10.4319 0.0402832 10.6609 0.0402832L31.3421 0.0436055C31.5721 0.0436055 32.0708 0.0506191 32.456 0.0644414C33.3987 0.0982793 34.615 0.172969 35.1693 0.285967C36.0021 0.455812 36.7883 0.71216 37.4426 1.04648C38.2166 1.44199 38.9099 1.94653 39.5083 2.54597C40.1054 3.14414 40.608 3.83677 41.0018 4.60967C41.3371 5.26744 41.5936 6.05847 41.7627 6.89605C41.8735 7.44475 41.9467 8.65201 41.9801 9.58868C41.9939 9.97431 42.0008 10.4731 42.0008 10.7023L41.9974 31.3834V31.3834Z" fill="url(#paint0_linear_459_2134)"/>
<path d="M32.1283 9.97694C29.2847 7.13099 25.5031 5.56288 21.4739 5.56128C13.1723 5.56128 6.41574 12.3152 6.41242 20.617C6.41135 23.2706 7.10489 25.861 8.42288 28.1442L6.28613 35.9466L14.2704 33.8529C16.4704 35.0523 18.9471 35.6845 21.4679 35.6855H21.4741C29.775 35.6855 36.5321 28.9308 36.5355 20.6289C36.5371 16.6058 34.9719 12.8229 32.1283 9.97694ZM21.4741 33.1426H21.469C19.2227 33.1417 17.0195 32.5385 15.0975 31.3982L14.6403 31.1271L9.90232 32.3695L11.167 27.7515L10.8693 27.278C9.61615 25.2855 8.95432 22.9825 8.95531 20.618C8.95801 13.7179 14.5738 8.10425 21.479 8.10425C24.8226 8.10552 27.9658 9.409 30.3293 11.7744C32.6928 14.1398 33.9937 17.2841 33.9925 20.628C33.9898 27.5286 28.374 33.1426 21.4741 33.1426ZM28.3408 23.7699C27.9644 23.5816 26.1142 22.6714 25.7692 22.5459C25.4243 22.4203 25.1734 22.3575 24.9224 22.7342C24.6716 23.1108 23.9504 23.9583 23.7308 24.2093C23.5113 24.4604 23.2918 24.4918 22.9155 24.3035C22.5391 24.1152 21.3265 23.7179 19.8891 22.4362C18.7704 21.4388 18.015 20.2066 17.7955 19.83C17.576 19.4533 17.7722 19.2498 17.9606 19.0621C18.1298 18.8936 18.3369 18.6227 18.5251 18.4031C18.7132 18.1834 18.776 18.0264 18.9014 17.7754C19.0269 17.5243 18.9641 17.3045 18.87 17.1162C18.776 16.9279 18.0233 15.0762 17.7097 14.3229C17.4042 13.5893 17.0939 13.6886 16.8629 13.677C16.6436 13.6661 16.3925 13.6638 16.1417 13.6638C15.8908 13.6638 15.4831 13.758 15.1381 14.1346C14.7932 14.5113 13.821 15.4214 13.821 17.2732C13.821 19.1249 15.1695 20.9139 15.3576 21.1649C15.5458 21.416 18.0113 25.2161 21.7865 26.8457C22.6844 27.2333 23.3853 27.4648 23.9319 27.6382C24.8334 27.9244 25.6538 27.8841 26.3023 27.7872C27.0254 27.6792 28.5288 26.8771 28.8425 25.9983C29.1561 25.1195 29.1561 24.3663 29.062 24.2094C28.9679 24.0524 28.7171 23.9583 28.3408 23.7699Z" fill="white"/>
</g>
<defs>
<linearGradient id="paint0_linear_459_2134" x1="20.9999" y1="0.0402832" x2="20.9999" y2="42.0421" gradientUnits="userSpaceOnUse">
<stop stop-color="#61FD7D"/>
<stop offset="1" stop-color="#2BB826"/>
</linearGradient>
<clipPath id="clip0_459_2134">
<rect width="42" height="42" fill="white"/>
</clipPath>
</defs>
</svg>
